<svg width="99" height="43" viewBox="0 0 99 43" fill="none" xmlns="http://www.w3.org/2000/svg">
<g id="graphic-assets/logo/michaels-full-primary">
<path id="Shape" fill-rule="evenodd" clip-rule="evenodd" d="M67.1106 14.4839C66.8793 15.3258 66.1543 15.2152 65.9731 14.8526V14.8465C65.8697 14.6395 65.8143 14.5935 65.7282 14.5219C65.6686 14.4724 65.5944 14.4107 65.4793 14.275C63.7169 12.487 61.9169 13.9985 60.7544 15.4056C58.8106 17.5317 56.5169 24.9727 59.0169 23.6394C61.0701 22.6519 62.8634 19.6851 64.0607 17.7044L64.0607 17.7043L64.0608 17.7042L64.0613 17.7034C64.3835 17.1703 64.6626 16.7087 64.8918 16.3765C65.9731 14.8096 67.8043 15.5285 67.5231 17.3289C67.5102 17.4138 67.4916 17.5247 67.4695 17.6569L67.4695 17.657C67.3089 18.6161 66.9602 20.6984 67.2293 22.1401C67.5076 23.6308 69.05 21.7683 69.7468 20.9269L69.7475 20.9261L69.7494 20.9237C69.8185 20.8404 69.8791 20.7672 69.9293 20.7084C69.5601 18.3911 69.9682 16.0185 71.0918 13.9494C73.8355 8.95383 79.2605 10.5268 77.873 14.9018C77.2589 16.9771 75.683 18.6448 73.623 19.3996C72.8043 19.7007 72.248 18.8466 73.1168 18.1707C74.1709 17.5154 75.0123 16.5772 75.5418 15.4671C76.3167 14.0354 75.448 12.8741 74.0293 13.8695C71.9293 15.3626 70.923 22.0111 74.098 23.965C77.123 25.5012 79.473 22.4227 81.598 18.6008C80.4917 14.2013 80.7355 6.45913 83.8604 2.48359C87.1292 -1.65786 91.7104 -0.0234017 91.7916 3.04889C91.8833 7.24182 88.5272 13.0684 86.986 15.7439C86.6368 16.3502 86.3808 16.7946 86.2792 17.0217C85.9104 17.8327 84.7167 17.5194 85.2854 16.2905C89.2042 9.38395 89.4291 4.13648 89.2854 2.95057C89.0292 0.793827 87.2417 1.29768 85.5354 3.14106C81.5417 8.63431 83.3479 16.8066 84.5979 21.4765C84.787 22.1757 84.9989 22.7956 85.1768 23.3163C85.4163 24.0175 85.5944 24.5388 85.5729 24.8314C85.4729 26.429 84.1417 26.2078 83.5167 24.9789C82.987 23.8047 82.5685 22.5849 82.2667 21.3352C79.1042 26.257 74.8105 26.5888 72.4105 24.9727C71.5685 24.3535 70.8821 23.5526 70.4043 22.6317C67.1043 25.7224 64.3356 23.6332 64.2356 20.4258C64.2016 20.4699 64.1537 20.5354 64.0925 20.6189C63.5233 21.3961 61.8074 23.739 59.5106 25.0649C57.4107 26.2693 55.6044 25.5565 55.4419 23.6025C55.2169 19.9342 58.8731 14.9018 60.1231 13.5377C61.4794 12.0691 62.8294 11.0799 64.6856 11.1352C66.5418 11.1905 67.3731 13.5377 67.1106 14.4839ZM26.3922 22.4596C25.4234 17.7713 27.6546 13.1813 28.3359 12.6283H28.3546C28.8473 12.1675 29.5922 12.0866 30.1753 12.4306C30.7584 12.7745 31.0363 13.4588 30.8546 14.103C30.6851 14.7736 30.4593 15.4292 30.1796 16.0631C29.3983 18.0991 29.0042 20.259 29.0171 22.435C29.2431 25.75 30.5753 24.688 30.9579 24.383C30.988 24.359 31.0123 24.3397 31.0296 24.3276C31.2671 24.1617 32.2671 23.0986 32.6796 20.5855C32.9921 18.6807 34.1483 14.146 38.1046 12.2412C40.8108 10.9508 42.7483 12.4194 42.8045 14.0846C42.8608 15.7497 40.9795 15.4056 40.492 14.8342C40.4659 14.8003 40.4387 14.7638 40.4103 14.7256C40.1186 14.3337 39.6943 13.7638 38.9483 14.0661C37.4546 14.6683 35.4546 17.8205 35.5108 21.3597C35.5671 24.899 38.8733 24.2047 40.8295 22.7546C42.7858 21.3044 44.0733 17.9495 44.1858 17.1446C44.4483 12.4685 47.6545 2.47744 49.1857 0.861418C50.8482 -0.902076 52.3545 0.799972 51.9795 1.47588C51.5395 2.53001 51.0567 3.61712 50.5618 4.73154L50.5617 4.73159C48.3707 9.66488 45.942 15.1334 45.942 20.647C47.4107 16.3949 50.2795 13.0461 53.2294 12.6283C55.9544 12.235 56.3982 14.146 55.7732 15.7374C55.669 16.0026 55.5482 16.2756 55.4205 16.5644C54.7816 18.0084 53.969 19.8449 54.1982 23.0556C54.2078 23.1824 54.2207 23.3213 54.2342 23.4673L54.2342 23.4679C54.317 24.362 54.4244 25.5224 53.9732 25.8023C52.7232 26.5703 52.1357 24.9727 52.0982 23.2154C52.0662 21.7177 52.9149 18.6133 53.267 17.3255C53.3281 17.1022 53.3742 16.9336 53.3982 16.8373C54.0732 14.1644 51.567 15.1721 50.8295 15.9218C48.3405 18.4552 47.1461 22.5271 46.6771 24.1259C46.6126 24.3458 46.5618 24.5189 46.5232 24.6348C46.1482 25.7715 44.6983 25.237 44.4045 23.9282C44.1678 23.0566 44.0274 22.1625 43.9858 21.2614C40.8358 25.747 34.8483 27.4183 33.1484 23.7684C30.0859 27.3384 27.3296 26.3614 26.3922 22.4596ZM24.2734 22.8467C23.7297 20.7699 24.0672 16.4871 24.3984 13.9801C24.6922 11.8574 25.1337 10.1799 25.5198 8.71286C25.9551 7.05865 26.3201 5.67202 26.3234 4.21636C26.3234 2.93829 25.9172 0.289972 23.0734 0.179369C16.0547 -0.0541245 13.4673 16.7267 13.1173 19.0985C13.0672 18.7195 13.0444 17.7204 13.014 16.3883C12.9573 13.8978 12.874 10.2434 12.536 7.30094C11.7923 0.627924 10.3235 0.24696 8.87355 0.136357C4.07492 -0.211855 3.3491 8.07962 3.31226 16.7619C3.248 14.8608 2.9454 12.6439 1.70485 11.2888C0.786112 10.2872 -0.632627 10.3855 0.311116 11.7189C0.362691 11.7875 0.415739 11.8966 0.47312 12.0147C0.533947 12.1398 0.599642 12.275 0.673613 12.3825C1.53336 13.6576 1.90289 16.7383 2.24897 19.6236C2.63501 22.8419 2.99187 25.8169 3.96734 25.7715C4.54858 25.7715 5.42357 25.5135 5.34858 23.0925C5.12983 15.7927 5.69232 2.72322 8.22355 2.71094C10.0728 2.71094 10.3642 8.88716 10.6233 14.3792C10.7398 16.85 10.8499 19.1823 11.0923 20.7514C11.5298 23.3137 14.2173 23.5288 15.086 19.885C15.3832 18.592 15.6055 17.4222 15.8175 16.306L15.8175 16.306C16.4036 13.221 16.9119 10.5453 18.711 6.80937C21.9672 0.0503333 24.6547 2.28082 23.4984 6.97527C23.4305 7.23697 23.3469 7.53877 23.2531 7.87743L23.2528 7.87836L23.2528 7.87844L23.2526 7.87921L23.2525 7.87947C22.4825 10.6585 21.0254 15.917 21.9109 21.8636C22.1984 23.8053 23.4734 26.2631 24.4109 25.7347C24.9282 25.4483 24.7045 24.5947 24.3157 23.1105L24.2547 22.8774L24.2734 22.8467ZM95.7354 13.0215C95.2291 11.3625 91.4416 12.1429 92.2791 14.1521C92.5719 14.863 93.5338 15.4351 94.653 16.1006C95.9231 16.856 97.3959 17.7318 98.3228 19.0678C101.035 23.0188 95.0229 27.4183 90.4791 25.3107C87.2729 23.8299 87.2604 21.5256 87.4729 20.5794C87.7792 19.1784 89.3479 19.1538 89.5667 19.8973C89.7519 20.7539 89.5642 21.0433 89.4113 21.279C89.3218 21.4169 89.2442 21.5365 89.2604 21.7407C89.5104 23.9835 93.2354 24.942 95.1916 22.9696C97.8791 20.2906 95.5229 18.5578 95.0541 18.226C94.5974 17.9005 94.0723 17.6644 93.5361 17.4232C92.6047 17.0044 91.6397 16.5705 90.9416 15.6268C88.5667 12.4378 92.2541 9.67274 94.9541 10.4715C96.2041 10.8402 97.1791 11.7005 96.9416 12.8679C96.7416 13.8326 95.9604 13.7466 95.7354 13.0154V13.0215ZM31.1734 7.54672C30.5231 7.64678 29.9613 8.04768 29.663 8.62447C29.3647 9.20125 29.3663 9.88377 29.6671 10.4592C30.0162 11.0213 30.7289 11.2505 31.3484 11C32.1834 10.5892 32.772 9.81461 32.9359 8.91082C32.9359 8.01985 32.4171 7.43612 31.1734 7.53443V7.54672ZM98.0353 10.3486H98.1166C98.2228 10.3486 98.2728 10.3917 98.2728 10.4592C98.2728 10.5268 98.1978 10.5699 98.0978 10.5699H98.0166L98.0353 10.3486ZM98.1166 10.6805H98.0353L98.0291 10.957H97.8603V10.2196C97.956 10.211 98.0522 10.211 98.1478 10.2196C98.2398 10.212 98.3318 10.2335 98.4103 10.2811C98.4547 10.3201 98.4798 10.3761 98.4791 10.4347C98.4729 10.5215 98.4093 10.594 98.3228 10.6129C98.4029 10.6406 98.4575 10.7138 98.4603 10.7972C98.4697 10.8591 98.4887 10.9192 98.5166 10.9754H98.3291C98.2992 10.92 98.2801 10.8595 98.2728 10.7972C98.2603 10.7173 98.2103 10.6805 98.1166 10.6805ZM98.1603 10.0046C98.4191 9.98699 98.6621 10.1284 98.7708 10.36C98.8796 10.5916 98.8315 10.8651 98.65 11.0474C98.4685 11.2297 98.1914 11.2827 97.9536 11.1808C97.7157 11.0788 97.5667 10.8431 97.5791 10.5883C97.574 10.4341 97.6331 10.2846 97.7429 10.1744C97.8526 10.0641 98.0034 10.0028 98.1603 10.0046ZM97.5108 10.2258C97.6448 9.99762 97.8924 9.85708 98.1603 9.85708C98.4283 9.85708 98.6759 9.99762 98.8098 10.2258C98.9438 10.4539 98.9438 10.735 98.8098 10.9631C98.6759 11.1912 98.4283 11.3318 98.1603 11.3318C97.8924 11.3318 97.6448 11.1912 97.5108 10.9631C97.3768 10.735 97.3768 10.4539 97.5108 10.2258Z" fill="#CF1F2E"/>
<path id="Shape_2" fill-rule="evenodd" clip-rule="evenodd" d="M39.0916 40.904C39.0614 40.5805 39.0469 40.2556 39.0482 39.9306V33H37.6843V36.037C37.3538 35.5588 36.7988 35.3094 36.2399 35.3881C34.8284 35.4998 33.7411 36.7374 33.7525 38.2192C33.764 39.7009 34.8703 40.9199 36.2833 41.0078C36.855 41.0433 37.4012 40.7562 37.7153 40.255C37.7131 40.4728 37.7318 40.6902 37.7711 40.904H39.0916ZM25.8191 35.4724V40.8845H27.2325V33.1622H25.2736L23.1101 38.7365L20.897 33.1622H19V40.8845H20.3824V35.5178L22.5025 40.8845H23.699L25.8191 35.4724ZM31.076 37.6074L29.8362 37.8021C28.992 37.8262 28.315 38.5406 28.2988 39.4244C28.3134 39.8956 28.515 40.339 28.855 40.6481C29.195 40.9572 29.6426 41.104 30.0903 41.0532C30.6907 41.0858 31.2631 40.785 31.5967 40.2615C31.5967 40.4791 31.6154 40.6963 31.6525 40.9104H32.8924C32.8527 40.629 32.832 40.3449 32.8304 40.0604V37.4257C32.8304 36.3485 32.2291 35.3881 30.6049 35.3881C29.5423 35.2679 28.5713 36.0266 28.3794 37.1272L29.6192 37.3997C29.662 36.8774 30.0994 36.489 30.5987 36.5302C31.1814 36.5302 31.4604 36.8417 31.4604 37.2245C31.4604 37.4127 31.3674 37.562 31.076 37.6074ZM31.479 38.7171V38.477L30.3259 38.6327C29.9786 38.65 29.7056 38.9501 29.706 39.3141C29.7056 39.4944 29.7768 39.6667 29.9026 39.7898C30.0285 39.9129 30.1975 39.9756 30.3693 39.963C30.6856 39.9908 30.9967 39.8652 31.2132 39.6221C31.4296 39.379 31.5276 39.0454 31.479 38.7171ZM36.4507 39.7359C36.8156 39.7227 37.1582 39.5489 37.3943 39.2573C37.6304 38.9657 37.7379 38.5834 37.6905 38.2044C37.7451 37.8279 37.639 37.4454 37.4003 37.158C37.1616 36.8707 36.8144 36.7076 36.4507 36.7119C35.7257 36.8115 35.1836 37.4584 35.1836 38.2239C35.1836 38.9894 35.7257 39.6362 36.4507 39.7359ZM42.7057 41.0467C43.7635 41.1077 44.7249 40.4064 45.0366 39.3465L43.8525 39.0156C43.6929 39.5386 43.2099 39.8774 42.6871 39.8332C42.0114 39.8628 41.4377 39.32 41.3977 38.6132H45.08V38.1655C45.08 36.4458 44.1377 35.3881 42.5569 35.3881C41.1871 35.5919 40.1815 36.8391 40.2196 38.2869C40.2576 39.7346 41.3273 40.922 42.7057 41.0467ZM43.7472 37.5944C43.7434 37.2811 43.6102 36.9848 43.382 36.782C43.1538 36.5792 42.8529 36.4897 42.5569 36.5367C41.9666 36.5135 41.4624 36.9785 41.4101 37.5944H43.7472ZM48.9545 33V40.8845H50.2873V40.2356C50.6273 40.7577 51.2034 41.0555 51.8061 41.0208C53.2629 41.0208 54.2176 39.7813 54.2176 38.1914C54.2176 36.6016 53.3559 35.3881 51.8557 35.3881C51.2605 35.3525 50.6864 35.624 50.3183 36.1149V33H48.9545ZM51.5519 36.6859C51.1842 36.6889 50.8349 36.8554 50.5913 37.1438C50.3477 37.4322 50.2327 37.8155 50.2749 38.1979C50.2329 38.5816 50.3476 38.966 50.5908 39.2565C50.834 39.5469 51.183 39.7163 51.5519 39.7229C52.2802 39.623 52.8249 38.9733 52.8249 38.2044C52.8249 37.4355 52.2802 36.7858 51.5519 36.6859ZM56.6477 40.2161L55.445 43L56.908 42.9935L60.1068 35.4984H58.6314L57.3916 38.6327L56.0277 35.5308H54.4779L56.6477 40.2161ZM64.0247 43L65.2645 40.2161L63.0886 35.5308H64.6384L66.0022 38.6652L67.2421 35.5308H68.7175L65.4939 42.9935L64.0247 43ZM71.6105 41.0078C73.0913 41.0125 74.2961 39.761 74.3029 38.2109V38.2044C74.32 37.4533 74.0429 36.7275 73.536 36.1956C73.029 35.6636 72.3363 35.3719 71.6187 35.3881C70.1378 35.3881 68.9368 36.6435 68.9345 38.1936C68.9322 39.7438 70.1296 41.003 71.6105 41.0078ZM72.9205 38.2109C72.8406 37.48 72.2232 36.9459 71.5224 37.0013C70.8217 37.0567 70.288 37.6819 70.3139 38.4171C70.3397 39.1522 70.9159 39.7346 71.6187 39.7359C71.9946 39.7384 72.3536 39.5723 72.6048 39.2795C72.8561 38.9868 72.9755 38.5954 72.9329 38.2044L72.9205 38.2109ZM77.2228 41.0337C77.7828 41.0652 78.319 40.7932 78.6423 40.3135C78.6413 40.511 78.6538 40.7083 78.6796 40.904H80C79.9679 40.5806 79.9514 40.2557 79.9504 39.9306V35.5178H78.568V38.6327C78.5999 38.9181 78.5089 39.2037 78.3196 39.4118C78.1304 39.62 77.8624 39.7292 77.5885 39.7099C77.3207 39.7199 77.0622 39.606 76.8819 39.3985C76.7016 39.191 76.6176 38.9109 76.6524 38.6327V35.5243H75.2824V38.9182C75.2353 39.4781 75.4216 40.032 75.7935 40.4374C76.1653 40.8429 76.6864 41.0603 77.2228 41.0337Z" fill="#CF1F2E"/>
<path id="Path" d="M81.6222 35.1843V36H81.3833V35.1843H81V35H82V35.1843H81.6222Z" fill="#CF1F2E"/>
<path id="Path_2" d="M83.6475 36V35.2995L83.1311 36H82.8443L82.3279 35.3041V36H82V35H82.4672L83 35.7235L83.5246 35H84V36H83.6475Z" fill="#CF1F2E"/>
</g>
</svg>
