<svg width="121" height="35" viewBox="0 0 121 35" fill="none" xmlns="http://www.w3.org/2000/svg">
<path fill-rule="evenodd" clip-rule="evenodd" d="M81.4934 19.5287C81.2126 20.6185 80.3324 20.4753 80.1123 20.006V19.998C79.9867 19.7301 79.9195 19.6705 79.815 19.5779C79.7426 19.5138 79.6525 19.4339 79.5128 19.2583C77.3728 16.9435 75.1873 18.9003 73.7759 20.7219C71.4158 23.4742 68.6308 33.1071 71.6663 31.381C74.1592 30.1026 76.3366 26.262 77.7903 23.6978L77.7903 23.6978L77.7904 23.6976L77.7909 23.6967L77.791 23.6966C78.1823 23.0065 78.5211 22.4089 78.7995 21.9787C80.1123 19.9503 82.3357 20.881 81.9943 23.2117C81.9788 23.3204 81.9565 23.4621 81.93 23.6309L81.9297 23.6332L81.9296 23.6338L81.9293 23.6355L81.9292 23.6363C81.7342 24.8778 81.3108 27.5736 81.6376 29.4401C81.9755 31.3698 83.8482 28.9588 84.6943 27.8695C84.7794 27.7599 84.8541 27.6637 84.9159 27.5867C84.4676 24.5867 84.963 21.5153 86.3273 18.8367C89.6587 12.3696 96.2456 14.406 94.5609 20.0696C93.8152 22.7562 91.9019 24.9152 89.4007 25.8923C88.4066 26.2821 87.7312 25.1764 88.786 24.3014C90.0659 23.4531 91.0875 22.2386 91.7304 20.8014C92.6714 18.948 91.6165 17.4446 89.8939 18.7333C87.3442 20.6662 86.1224 29.273 89.9774 31.8026C93.6503 33.7912 96.5036 29.806 99.0837 24.8583C97.7405 19.1628 98.0365 9.14007 101.831 3.99348C105.8 -1.36788 111.362 0.748025 111.461 4.7253C111.572 10.1533 107.497 17.6962 105.626 21.1598C105.202 21.9447 104.891 22.52 104.768 22.8139C104.32 23.8639 102.87 23.4583 103.561 21.8673C108.319 12.9264 108.592 6.13325 108.418 4.59803C108.106 1.80598 105.936 2.45825 103.864 4.84462C99.0154 11.956 101.208 22.5355 102.726 28.581C102.956 29.4861 103.213 30.2887 103.429 30.9628C103.72 31.8705 103.936 32.5453 103.91 32.9242C103.789 34.9923 102.172 34.706 101.413 33.1151C100.77 31.595 100.262 30.0159 99.8957 28.398C96.0558 34.7696 90.8425 35.1992 87.9285 33.1071C86.9061 32.3055 86.0728 31.2686 85.4926 30.0764C81.4858 34.0776 78.1241 31.373 78.0027 27.2208C77.9618 27.2774 77.9042 27.3613 77.8307 27.4682L77.8295 27.47L77.8289 27.4708C77.1378 28.4769 75.0544 31.5099 72.2657 33.2264C69.716 34.7855 67.5229 33.8628 67.3256 31.3333C67.0524 26.5844 71.4917 20.0696 73.0094 18.3037C74.6561 16.4026 76.2953 15.1219 78.5491 15.1935C80.8029 15.2651 81.8121 18.3037 81.4934 19.5287ZM32.054 29.8537C30.8778 23.7844 33.5869 17.8424 34.4141 17.1265H34.4368C35.035 16.5299 35.9394 16.4252 36.6474 16.8705C37.3554 17.3158 37.6929 18.2016 37.4722 19.0355C37.2664 19.9037 36.9923 20.7524 36.6527 21.573C35.704 24.2088 35.2256 27.0049 35.2412 29.8219C35.5155 34.1133 37.1331 32.7385 37.5976 32.3437C37.6342 32.3126 37.6637 32.2876 37.6847 32.2719C37.9731 32.0571 39.1873 30.681 39.6881 27.4276C40.0675 24.9617 41.4714 19.0912 46.275 16.6253C49.5608 14.9549 51.9132 16.856 51.9815 19.0117C52.0498 21.1674 49.7657 20.7219 49.1738 19.9821C49.1421 19.9383 49.1091 19.891 49.0745 19.8415C48.7203 19.3343 48.2052 18.5965 47.2994 18.9878C45.4857 19.7674 43.0574 23.848 43.1257 28.4299C43.194 33.0117 47.2083 32.1128 49.5836 30.2355C51.9588 28.3583 53.522 24.0151 53.6586 22.973C53.9773 16.9196 57.8703 3.98555 59.7295 1.8935C61.748 -0.38945 63.5768 1.81396 63.1215 2.68896C62.5874 4.05358 62.0012 5.46087 61.4002 6.90353L61.4002 6.90358L61.4002 6.9037C58.7399 13.2902 55.791 20.3695 55.791 27.5071C57.5743 22.0026 61.0574 17.6674 64.6392 17.1265C67.9478 16.6174 68.4866 19.0912 67.7278 21.1515C67.6014 21.4946 67.4548 21.8479 67.2998 22.2215L67.2996 22.222C66.5238 24.0913 65.5372 26.4689 65.8155 30.6253C65.8272 30.7897 65.8428 30.9697 65.8593 31.159C65.9597 32.3165 66.0901 33.8187 65.5423 34.181C64.0246 35.1753 63.3112 33.1071 63.2657 30.8321C63.2269 28.8933 64.2574 24.8744 64.6849 23.2073C64.759 22.9182 64.815 22.6999 64.8441 22.5753C65.6637 19.1151 62.6207 20.4196 61.7252 21.3901C58.7032 24.6697 57.2529 29.9411 56.6835 32.0109C56.6052 32.2955 56.5435 32.5196 56.4967 32.6696C56.0414 34.1412 54.2809 33.4492 53.9242 31.7549C53.6368 30.6266 53.4664 29.4692 53.4158 28.3026C49.5912 34.1094 42.3213 36.273 40.2572 31.548C36.5388 36.1696 33.1923 34.9049 32.054 29.8537ZM29.4815 30.3549C28.8213 27.6662 29.2311 22.1219 29.6333 18.8764C29.99 16.1285 30.526 13.9568 30.9948 12.0577C31.5234 9.91621 31.9665 8.12113 31.9706 6.23668C31.9706 4.58213 31.4773 1.15372 28.0245 1.01054C19.5026 0.708269 16.3609 22.4321 15.936 25.5026C15.8751 25.0119 15.8475 23.7186 15.8106 21.9942V21.9941V21.9941V21.9941V21.9941V21.9941C15.7417 18.77 15.6406 14.039 15.2302 10.2299C14.3272 1.59122 12.5439 1.09804 10.7833 0.95486C4.95696 0.504077 4.07568 11.2379 4.03095 22.4777C3.95293 20.0166 3.58551 17.1467 2.07927 15.3924C0.963757 14.0958 -0.758844 14.223 0.387027 15.9492C0.449649 16.038 0.514059 16.1793 0.583729 16.3321C0.657584 16.4941 0.73735 16.6691 0.827163 16.8083C1.87104 18.459 2.31972 22.4472 2.73993 26.1823C3.20864 30.3486 3.64193 34.1999 4.82633 34.1412C5.53206 34.1412 6.59446 33.8071 6.5034 30.673C6.2378 21.223 6.92077 4.30372 9.99413 4.28781C12.2395 4.28781 12.5932 12.2833 12.9078 19.3931V19.3931C13.0493 22.5917 13.1829 25.611 13.4773 27.6424C14.0085 30.9594 17.2715 31.2378 18.3264 26.5208C18.6873 24.8469 18.9571 23.3325 19.2146 21.8875L19.2146 21.8874C19.9262 17.8938 20.5434 14.4299 22.7277 9.5935C26.6813 0.843496 29.9444 3.731 28.5405 9.80827C28.4579 10.1477 28.3562 10.5393 28.2419 10.9788C27.307 14.5764 25.5378 21.3839 26.613 29.0821C26.9621 31.5958 28.5102 34.7776 29.6485 34.0935C30.2765 33.7227 30.005 32.6177 29.5328 30.6964L29.4588 30.3946L29.4815 30.3549ZM116.249 17.6356C115.634 15.4878 111.036 16.4981 112.052 19.0992C112.408 20.0195 113.576 20.76 114.935 21.6217C116.477 22.5995 118.265 23.7333 119.391 25.4628C122.684 30.5776 115.384 36.2731 109.867 33.5446C105.974 31.6276 105.959 28.6446 106.217 27.4196C106.589 25.606 108.493 25.5742 108.759 26.5367C108.984 27.6456 108.756 28.0202 108.57 28.3253C108.462 28.5039 108.368 28.6587 108.387 28.9231C108.691 31.8265 113.214 33.0674 115.589 30.514C118.852 27.0458 115.991 24.8026 115.422 24.3731C114.867 23.9516 114.23 23.646 113.579 23.3338C112.448 22.7917 111.276 22.23 110.429 21.0083C107.545 16.8799 112.022 13.3003 115.3 14.3344C116.818 14.8117 118.002 15.9253 117.714 17.4367C117.471 18.6856 116.522 18.5742 116.249 17.6276V17.6356ZM37.8593 10.5481C37.0698 10.6776 36.3876 11.1966 36.0254 11.9433C35.6633 12.69 35.6651 13.5735 36.0304 14.3185C36.4542 15.0461 37.3197 15.3429 38.0718 15.0185C39.0857 14.4867 39.8003 13.484 39.9993 12.314C39.9993 11.1606 39.3694 10.4049 37.8593 10.5322V10.5481ZM119.042 14.1753H119.14C119.269 14.1753 119.33 14.231 119.33 14.3185C119.33 14.406 119.239 14.4617 119.117 14.4617H119.019L119.042 14.1753ZM119.14 14.6048H119.042L119.034 14.9628H118.829V14.0082C118.945 13.9971 119.062 13.9971 119.178 14.0082C119.29 13.9983 119.402 14.0262 119.497 14.0878C119.551 14.1383 119.581 14.2108 119.58 14.2866C119.573 14.3991 119.496 14.4929 119.391 14.5173C119.488 14.5533 119.554 14.648 119.558 14.7559C119.569 14.836 119.592 14.9138 119.626 14.9866H119.398C119.362 14.9149 119.339 14.8366 119.33 14.7559C119.315 14.6525 119.254 14.6048 119.14 14.6048ZM119.193 13.7299C119.508 13.7072 119.803 13.8903 119.935 14.1901C120.067 14.4899 120.008 14.844 119.788 15.0799C119.568 15.3159 119.231 15.3846 118.942 15.2526C118.654 15.1206 118.473 14.8154 118.488 14.4856C118.481 14.286 118.553 14.0924 118.687 13.9497C118.82 13.807 119.003 13.7276 119.193 13.7299ZM118.405 14.0162C118.567 13.7209 118.868 13.5389 119.193 13.5389C119.519 13.5389 119.819 13.7209 119.982 14.0162C120.145 14.3115 120.145 14.6754 119.982 14.9707C119.819 15.2661 119.519 15.448 119.193 15.448C118.868 15.448 118.567 15.2661 118.405 14.9707C118.242 14.6754 118.242 14.3115 118.405 14.0162Z" fill="white"/>
</svg>
